<?xml version="1.0" ?><svg id="object" viewBox="0 0 32 32" xmlns="http://www.w3.org/2000/svg"><defs><style>.cls-1{fill:#96d7ff;}.cls-2{fill:#6d6daa;}.cls-3{fill:#ffc661;}.cls-4{fill:#eef5fd;}</style></defs><title/><polygon class="cls-1" points="26 20.34 26 23.16 23.17 23.16 9.74 9.73 12.56 6.9 26 20.34"/><path class="cls-2" d="M26,24.16H23.17a1,1,0,0,1-.71-.29L9,10.44a1,1,0,0,1-.29-.71A1,1,0,0,1,9,9l2.83-2.83a1,1,0,0,1,1.41,0L26.71,19.63a1,1,0,0,1,.29.71v2.82A1,1,0,0,1,26,24.16Zm-2.41-2H25V20.75L12.57,8.32,11.15,9.73Z"/><path class="cls-3" d="M14,9H8L6,24l5,6,5-6Z"/><path class="cls-2" d="M11,31a1,1,0,0,1-.77-.36l-5-6A1,1,0,0,1,5,23.87l2-15A1,1,0,0,1,8,8h6a1,1,0,0,1,1,.87l2,15a1,1,0,0,1-.22.77l-5,6A1,1,0,0,1,11,31ZM7.05,23.7l4,4.74L15,23.7,13.12,10H8.88Z"/><polygon class="cls-4" points="16 8 11 12 6 8 6 2 16 2 16 8"/><path class="cls-2" d="M11,13a1,1,0,0,1-.62-.22l-5-4A1,1,0,0,1,5,8V2A1,1,0,0,1,6,1H16a1,1,0,0,1,1,1V8a1,1,0,0,1-.37.78l-5,4A1,1,0,0,1,11,13ZM7,7.52l4,3.2,4-3.2V3H7ZM16,8h0Z"/></svg>